<svg xmlns="http://www.w3.org/2000/svg" version="1.1" xmlns:xlink="http://www.w3.org/1999/xlink" xmlns:svgjs="http://svgjs.dev/svgjs" width="2000" height="2457" viewBox="0 0 2000 2457"><g transform="matrix(1,0,0,1,1.159203980099278,0.9947368421051124)"><svg viewBox="0 0 201 247" data-background-color="#ffffff" preserveAspectRatio="xMidYMid meet" height="2457" width="2000" xmlns="http://www.w3.org/2000/svg" xmlns:xlink="http://www.w3.org/1999/xlink"><g id="tight-bounds" transform="matrix(1,0,0,1,-0.11649999999997362,-0.09999999999999432)"><svg viewBox="0 0 201.23274202898554 247.2" height="247.2" width="201.23274202898554"><g><svg></svg></g><g><svg viewBox="0 0 201.23274202898554 247.2" height="247.2" width="201.23274202898554"><g transform="matrix(1,0,0,1,0,47.215199999999996)"><svg viewBox="0 0 201.23274202898554 152.7696" height="152.7696" width="201.23274202898554"><g><svg viewBox="0 0 201.23274202898554 152.7696" height="152.7696" width="201.23274202898554"><g><svg viewBox="0 0 201.23274202898554 152.7696" height="152.7696" width="201.23274202898554"><g><svg viewBox="0 0 201.23274202898554 152.7696" height="152.7696" width="201.23274202898554"><g id="textblocktransform"><svg viewBox="0 0 201.23274202898554 152.7696" height="152.7696" width="201.23274202898554" id="textblock"><g><svg viewBox="0 0 201.23274202898554 152.7696" height="152.7696" width="201.23274202898554"><g transform="matrix(1,0,0,1,0,0)"><svg width="201.23274202898554" viewBox="2.2 -31.05 40.9 31.05" height="152.7696" data-palette-color="#6936f5"><path d="M19.5-7L19 0 2.2 0 2.2-31.05 19.5-31.05 19-23.4 10.75-23.4 10.75-18.75 17.9-18.75 17.9-12.15 10.75-12.15 10.75-7 19.5-7ZM33.1-10.15L33.1-10.15 30.8-10.15 30.8 0 22.4 0 22.4-31.05 32.55-31.05Q37.9-31.05 40.5-28.6 43.1-26.15 43.1-20.55 43.1-14.95 40.65-12.55 38.2-10.15 33.1-10.15ZM34.05-16.9Q34.5-17.75 34.5-19.95 34.5-22.15 34-23.05 33.5-23.95 32-23.95L32-23.95 30.8-23.95 30.8-16.05 32.2-16.05Q33.6-16.05 34.05-16.9Z" opacity="1" transform="matrix(1,0,0,1,0,0)" fill="#6936f5" class="wordmark-text-0" data-fill-palette-color="primary" id="text-0"></path></svg></g></svg></g></svg></g></svg></g><g></g></svg></g></svg></g></svg></g><path d="M0 41.215L0 1 201.233 1 201.233 41.215 187.456 41.215 187.456 14.777 13.777 14.777 13.777 41.215 0 41.215M0 205.985L0 246.2 201.233 246.2 201.233 205.985 187.456 205.985 187.456 232.423 13.777 232.423 13.777 205.985 0 205.985" fill="#6936f5" stroke="transparent" data-fill-palette-color="primary"></path></svg></g><defs></defs></svg><rect width="201.23274202898554" height="247.2" fill="none" stroke="none" visibility="hidden"></rect></g></svg></g></svg>